<svg width="700" height="700" viewBox="0 0 700 700" fill="none" xmlns="http://www.w3.org/2000/svg">
<g clip-path="url(#clip0_1034_15)">
<path d="M445.8 580C400.6 580 361.4 571.4 328.2 554.2C295 537 269.6 512.2 252 479.8C234.4 447.4 225.6 409 225.6 364.6C225.6 320.2 234.4 281.8 252 249.4C269.6 216.6 294.8 191.6 327.6 174.4C360.8 156.8 399.8 148 444.6 148C481.8 148 516.2 154.4 547.8 167.2C579.4 180 602.8 197 618 218.2C622.8 224.6 625.2 231.2 625.2 238C625.2 248 619.8 257 609 265C604.2 268.6 598.2 270.4 591 270.4C585 270.4 579 269.2 573 266.8C567 264 562 260.2 558 255.4C544.4 239.8 528.6 228.6 510.6 221.8C492.6 214.6 470.6 211 444.6 211C401 211 367 224.6 342.6 251.8C318.2 278.6 306 316.2 306 364.6C306 412.6 318.2 450 342.6 476.8C367.4 503.6 401.8 517 445.8 517C482.2 517 510.6 510 531 496C551.8 482 562.2 462.6 562.2 437.8V424.6C562.2 416.2 560.2 410.4 556.2 407.2C552.6 404 546.2 402.4 537 402.4H458.4C447.2 402.4 438.4 399.8 432 394.6C425.6 389 422.4 381.4 422.4 371.8C422.4 361.8 425.4 354.2 431.4 349C437.8 343.4 446.8 340.6 458.4 340.6H574.8C598 340.6 615 345.6 625.8 355.6C636.6 365.2 642 380.6 642 401.8V425.2C642 455.6 633.8 482.6 617.4 506.2C601 529.4 577.8 547.6 547.8 560.8C518.2 573.6 484.2 580 445.8 580Z" fill="#9984D4"/>
<path d="M276.8 580C231.6 580 192.4 571.4 159.2 554.2C126 537 100.6 512.2 83 479.8C65.4 447.4 56.6 409 56.6 364.6C56.6 320.2 65.4 281.8 83 249.4C100.6 216.6 125.8 191.6 158.6 174.4C191.8 156.8 230.8 148 275.6 148C312.8 148 347.2 154.4 378.8 167.2C410.4 180 433.8 197 449 218.2C453.8 224.6 456.2 231.2 456.2 238C456.2 248 450.8 257 440 265C435.2 268.6 429.2 270.4 422 270.4C416 270.4 410 269.2 404 266.8C398 264 393 260.2 389 255.4C375.4 239.8 359.6 228.6 341.6 221.8C323.6 214.6 301.6 211 275.6 211C232 211 198 224.6 173.6 251.8C149.2 278.6 137 316.2 137 364.6C137 412.6 149.2 450 173.6 476.8C198.4 503.6 232.8 517 276.8 517C327.2 517 367.4 502.2 397.4 472.6C409.8 461 421.2 455.2 431.6 455.2C438.8 455.2 445.4 457.6 451.4 462.4C460.6 470.4 465.2 479.2 465.2 488.8C465.2 496 462.6 503 457.4 509.8C440.2 531.8 415.6 549 383.6 561.4C352 573.8 316.4 580 276.8 580Z" fill="#EF5B5B"/>
</g>
<defs>
<clipPath id="clip0_1034_15">
<rect width="700" height="700" fill="white"/>
</clipPath>
</defs>
</svg>
